<?xml version="1.0" encoding="UTF-8" standalone="no"?>
<svg
   width="361.58325"
   height="1000"
   viewBox="0 0 361.58327 999.99988"
   fill="none"
   version="1.1"
   id="svg6"
   sodipodi:docname="Love, Death &amp; Robots vertical.svg"
   inkscape:version="1.1.2 (b8e25be833, 2022-02-05)"
   xmlns:inkscape="http://www.inkscape.org/namespaces/inkscape"
   xmlns:sodipodi="http://sodipodi.sourceforge.net/DTD/sodipodi-0.dtd"
   xmlns="http://www.w3.org/2000/svg"
   xmlns:svg="http://www.w3.org/2000/svg">
  <defs
     id="defs10" />
  <sodipodi:namedview
     id="namedview8"
     pagecolor="#ffffff"
     bordercolor="#666666"
     borderopacity="1.0"
     inkscape:pageshadow="2"
     inkscape:pageopacity="0.0"
     inkscape:pagecheckerboard="0"
     showgrid="false"
     inkscape:zoom="0.5"
     inkscape:cx="297"
     inkscape:cy="500"
     inkscape:window-width="1366"
     inkscape:window-height="705"
     inkscape:window-x="-8"
     inkscape:window-y="-8"
     inkscape:window-maximized="1"
     inkscape:current-layer="svg6" />
  <g
     id="g1414"
     inkscape:label="Symbol">
    <path
       id="path3345"
       style="opacity:1;fill:#000000;stroke-width:18.9583"
       d="m 42.06252,715.78905 v 253.09994 c 0,17.11486 14.0338,31.11101 31.2001,31.11101 h 217.6964 c 17.1663,0 31.2001,-13.99615 31.2001,-31.11101 V 746.89605 c 0,-17.11522 -14.0338,-31.107 -31.2001,-31.107 z m 72.1259,60.93559 a 31.815256,31.815256 0 0 1 31.815,31.81499 31.815256,31.815256 0 0 1 -31.815,31.815 31.815256,31.815256 0 0 1 -31.819,-31.815 31.815256,31.815256 0 0 1 31.819,-31.81499 z m 133.7047,0 a 31.815256,31.815256 0 0 1 31.815,31.81499 31.815256,31.815256 0 0 1 -31.815,31.815 31.815256,31.815256 0 0 1 -31.815,-31.815 31.815256,31.815256 0 0 1 31.815,-31.81499 z"
       inkscape:label="Robots" />
    <path
       style="opacity:1;fill:#000000;stroke-width:20.669"
       d="m 86.17471,331.73005 -66.81319,66.68969 95.44299,95.62383 -75.01707,75.15821 c -18.32595,18.36041 -18.29868,47.89632 0.0617,66.22215 18.36052,18.32581 47.89632,18.29865 66.22216,-0.0617 l 74.89358,-75.03473 96.39123,96.57655 66.8177,-66.68969 -96.51926,-96.70446 73.91876,-74.05995 c 18.3257,-18.3606 18.2987,-47.89626 -0.062,-66.22209 -18.3604,-18.32581 -47.8965,-18.29887 -66.2221,0.0617 l -73.7953,73.93647 z"
       id="path829"
       inkscape:label="Death" />
    <path
       style="opacity:1;fill:#000000;stroke-width:21.256"
       d="m 81.290484,0 c -61.45568,0 -116.7352,85.04242 -52.8804,157.81565 L 180.79163,331.48 333.17319,157.81565 C 397.02796,85.04242 341.74842,0 280.29276,0 218.83712,0 197.07718,31.19896 180.79163,51.5559 164.50609,31.19896 142.74615,0 81.290484,0 Z"
       id="path3343"
       inkscape:label="Love" />
  </g>
</svg>
